<!DOCTYPE svg PUBLIC "-//W3C//DTD SVG 1.1//EN" "http://www.w3.org/Graphics/SVG/1.1/DTD/svg11.dtd">
<!-- Uploaded to: SVG Repo, www.svgrepo.com, Transformed by: SVG Repo Mixer Tools -->
<svg fill="#003366" height="800px" width="800px" version="1.1" id="Layer_1" xmlns="http://www.w3.org/2000/svg" xmlns:xlink="http://www.w3.org/1999/xlink" viewBox="0 0 512 512" xml:space="preserve" stroke="#003366" transform="matrix(-1, 0, 0, 1, 0, 0)rotate(180)" stroke-width="6.656000000000001">
<g id="SVGRepo_bgCarrier" stroke-width="0"/>
<g id="SVGRepo_tracerCarrier" stroke-linecap="round" stroke-linejoin="round"/>
<g id="SVGRepo_iconCarrier"> <g> <g> <path d="M507.733,25.6H294.398v-9.003C294.398,7.43,286.968,0,277.801,0h-35.063c-9.173,0-16.606,7.427-16.606,16.597v9.733 C118.72,34.806,34.299,122.441,30.051,230.4h-9.186c-9.167,0-16.597,7.43-16.597,16.597V281.6c0,9.085,6.805,17.067,16.137,17.067 h9.462V512h119.467V298.667h8.535c9.167,0,17.067-7.899,17.067-17.067v-34.603c0-9.167-7.43-16.597-16.597-16.597h-8.608 c3.789-41.959,35.222-76.172,76.402-83.704v7.374c0,9.17,7.433,16.597,16.606,16.597h35.063c9.167,0,16.597-7.43,16.597-16.597 v-9.003h213.334V25.6z M132.266,494.933H46.932V298.667h85.333V494.933z M157.868,281.6h-8.535H29.866h-8.532v-34.133h8.533v0.003 h119.467v-0.003h8.533V281.6z M132.592,230.4H47.116c4.215-98.562,81.07-178.56,179.015-186.962v85.945 C175.43,137.189,136.505,179.053,132.592,230.4z M277.332,153.6h-34.133v-8.778l0.003,0V25.461l-0.003,0v-8.394h34.133V153.6z M490.666,128H294.399V42.667h196.267V128z"/> </g> </g> </g>
</svg>